<svg width="54" height="50" viewBox="0 0 54 50" fill="none" xmlns="http://www.w3.org/2000/svg">
<path d="M0.500034 37.3601C0.500034 40.4037 3.23794 43.3227 8.05087 45.5096C12.8186 47.676 19.4403 49.0291 26.7811 49.0291C34.1219 49.0291 40.7436 47.676 45.5113 45.5096C50.3242 43.3227 53.0621 40.4037 53.0621 37.3601C53.0621 34.3164 50.3242 31.3974 45.5113 29.2105C40.7436 27.0441 34.1219 25.691 26.7811 25.691C19.4403 25.691 12.8186 27.0441 8.05087 29.2105C3.23794 31.3974 0.500034 34.3164 0.500034 37.3601Z" stroke="#DFE7F1"/>
<path d="M0.500034 25.191C0.500034 28.2346 3.23794 31.1536 8.05087 33.3406C12.8186 35.507 19.4403 36.86 26.7811 36.86C34.1219 36.86 40.7436 35.507 45.5113 33.3406C50.3242 31.1536 53.0621 28.2346 53.0621 25.191C53.0621 22.1473 50.3242 19.2283 45.5113 17.0414C40.7436 14.875 34.1219 13.522 26.7811 13.522C19.4403 13.522 12.8186 14.875 8.05087 17.0414C3.23794 19.2283 0.500034 22.1473 0.500034 25.191Z" stroke="#DFE7F1"/>
<path d="M0.500034 13.022C0.500034 16.0657 3.23794 18.9847 8.05087 21.1716C12.8186 23.338 19.4403 24.6911 26.7811 24.6911C34.1219 24.6911 40.7436 23.338 45.5113 21.1716C50.3242 18.9847 53.0621 16.0657 53.0621 13.022C53.0621 9.97839 50.3242 7.0594 45.5113 4.87246C40.7436 2.70606 34.1219 1.35303 26.7811 1.35303C19.4403 1.35303 12.8186 2.70606 8.05087 4.87246C3.23794 7.0594 0.500034 9.97839 0.500034 13.022Z" stroke="#DFE7F1"/>
</svg>
