<svg width="214" height="31" viewBox="0 0 214 31" fill="none" xmlns="http://www.w3.org/2000/svg">
<path fill-rule="evenodd" clip-rule="evenodd" d="M3.19156 14.9V16.1C3.19156 17.8673 4.62047 19.3 6.38311 19.3H11.5295C13.2921 19.3 14.7211 17.8673 14.7211 16.1V14.9C14.7211 13.1327 13.2921 11.7 11.5295 11.7H6.38311C4.62047 11.7 3.19156 13.1327 3.19156 14.9ZM0 16.1C0 19.6346 2.85782 22.5 6.38311 22.5H11.5295C15.0548 22.5 17.9126 19.6346 17.9126 16.1V14.9C17.9126 11.3654 15.0548 8.50002 11.5295 8.50002H6.38311C2.85782 8.50002 0 11.3654 0 14.9V16.1Z" fill="#353638"/>
<path d="M18.4182 18.14C18.1658 18.9983 17.9126 19.8688 17.9126 20.7636V30.5H21.1042V8.50002H17.9126V10.2364C17.9126 11.1313 18.1658 12.0017 18.4182 12.86C18.6084 13.5068 18.7105 14.1915 18.7105 14.9V16.1C18.7105 16.8086 18.6084 17.4932 18.4182 18.14Z" fill="#353638"/>
<path d="M16.7956 13.9H19.9871V17.1H16.7956V13.9Z" fill="#353638"/>
<path fill-rule="evenodd" clip-rule="evenodd" d="M53.3788 16.1V14.9C53.3788 13.1327 51.9499 11.7 50.1872 11.7H45.0409C43.2782 11.7 41.8493 13.1327 41.8493 14.9V16.1C41.8493 17.8673 43.2782 19.3 45.0409 19.3H50.1872C51.9499 19.3 53.3788 17.8673 53.3788 16.1ZM56.5704 14.9C56.5704 11.3654 53.7125 8.49999 50.1872 8.49999H45.0409C41.5156 8.49999 38.6577 11.3654 38.6577 14.9V16.1C38.6577 19.6346 41.5156 22.5 45.0409 22.5H50.1872C53.7125 22.5 56.5704 19.6346 56.5704 16.1V14.9Z" fill="#353638"/>
<path d="M38.1522 12.86C38.4046 12.0017 38.6577 11.1312 38.6577 10.2364V0.5H35.4662V22.5H38.6577V20.7636C38.6577 19.8687 38.4046 18.9983 38.1522 18.14C37.9619 17.4932 37.8599 16.8085 37.8599 16.1V14.9C37.8599 14.1914 37.9619 13.5068 38.1522 12.86Z" fill="#353638"/>
<path d="M39.7748 17.1H36.5832V13.9H39.7748V17.1Z" fill="#353638"/>
<path d="M28.2852 5.34002H25.0936V7.74002C25.0936 8.18184 24.7364 8.54002 24.2957 8.54002H21.9021V11.74H25.0936V18.86C25.0936 20.8924 26.7369 22.54 28.7639 22.54H34.6683V19.34H29.0831C28.6424 19.34 28.2852 18.9818 28.2852 18.54V12.78C28.2852 12.2056 28.7496 11.74 29.3224 11.74H34.6683V8.54002H29.9659C29.5426 8.54002 29.1367 8.70859 28.8375 9.00864L27.8121 10.0367L27.228 9.48002L27.7312 8.99608C28.0349 8.70394 28.2113 8.30329 28.2218 7.88138L28.2852 5.34002Z" fill="#353638"/>
<path fill-rule="evenodd" clip-rule="evenodd" d="M100.57 16.2563H62.8559V14.7437H100.57V16.2563Z" fill="#353638"/>
<path d="M110.883 8.77966V14.2983H111.301L125.733 8.49999V10.0475L112.956 15.1559V15.4542L126.969 22.2034H123.241L111.281 16.4424H110.883V22.2034H108.893V8.77966H110.883Z" fill="#353638"/>
<path d="M145.724 10.5136C143.783 9.17118 141.283 8.49999 138.225 8.49999C135.167 8.49999 132.66 9.17118 130.706 10.5136C128.765 11.8435 127.794 13.5028 127.794 15.4915C127.794 17.5424 128.758 19.2203 130.685 20.5254C132.626 21.8305 135.139 22.483 138.225 22.483C141.311 22.483 143.818 21.8305 145.745 20.5254C147.686 19.2203 148.656 17.5424 148.656 15.4915C148.656 13.5028 147.679 11.8435 145.724 10.5136ZM132.151 11.6136C133.729 10.5571 135.753 10.0288 138.225 10.0288C140.697 10.0288 142.722 10.5571 144.299 11.6136C145.877 12.6701 146.666 13.9627 146.666 15.4915C146.666 17.0079 145.87 18.3006 144.279 19.3695C142.701 20.426 140.683 20.9542 138.225 20.9542C135.767 20.9542 133.743 20.426 132.151 19.3695C130.573 18.3006 129.784 17.0079 129.784 15.4915C129.784 13.9627 130.573 12.6701 132.151 11.6136Z" fill="#353638"/>
<path d="M161.825 8.77966C162.928 8.77966 163.906 8.86666 164.757 9.04067C165.623 9.20225 166.3 9.41355 166.789 9.67457C167.292 9.93559 167.704 10.2401 168.025 10.5881C168.346 10.9362 168.563 11.278 168.674 11.6136C168.786 11.9367 168.842 12.2723 168.842 12.6203C168.842 12.9684 168.786 13.3102 168.674 13.6458C168.563 13.9689 168.346 14.3045 168.025 14.6525C167.704 15.0006 167.292 15.3051 166.789 15.5661C166.3 15.8271 165.623 16.0446 164.757 16.2186C163.906 16.3802 162.928 16.461 161.825 16.461H161.197V16.7034L170.518 22.2034H167.313L157.636 16.461H154.41V22.2034H152.42V8.77966H161.825ZM161.825 14.9695C163.64 14.9695 164.925 14.7395 165.679 14.2797C166.433 13.8198 166.81 13.2667 166.81 12.6203C166.81 11.974 166.433 11.4209 165.679 10.961C164.925 10.5011 163.64 10.2712 161.825 10.2712H154.41V14.9695H161.825Z" fill="#353638"/>
<path d="M189.047 8.77966V10.2712H175.223V14.3542H187.162V15.8458H175.223V20.7119H189.047V22.2034H173.233V8.77966H189.047Z" fill="#353638"/>
<path d="M203.596 8.77966L213.084 22.2034H210.738L207.994 18.3068H196.306L193.521 22.2034H191.363L200.977 8.77966H203.596ZM202.36 10.3644H202.004L197.375 16.8152H206.926L202.36 10.3644Z" fill="#353638"/>
</svg>
