<svg width="60" height="122" viewBox="0 0 60 122" fill="none" xmlns="http://www.w3.org/2000/svg">
<path d="M9.09725 25C19.6149 22.8829 27.8829 14.6149 30 4.09725C32.1171 14.6149 40.3851 22.8829 50.9027 25C40.3851 27.1171 32.1171 35.3851 30 45.9027C27.8829 35.3851 19.6149 27.1171 9.09725 25Z" fill="#353638" stroke="#353638"/>
<path d="M9.09725 58C19.6149 55.8829 27.8829 47.6149 30 37.0973C32.1171 47.6149 40.3851 55.8829 50.9027 58C40.3851 60.1171 32.1171 68.3851 30 78.9027C27.8829 68.3851 19.6149 60.1171 9.09725 58Z" fill="#353638" stroke="#353638"/>
<path d="M59 81C59 84.5593 56.0886 88.0509 50.766 90.7122C45.5032 93.3436 38.1627 95 30 95C21.8373 95 14.4968 93.3436 9.23401 90.7122C3.91138 88.0509 1 84.5593 1 81C1 77.4407 3.91138 73.9491 9.23401 71.2878C14.4968 68.6564 21.8373 67 30 67C38.1627 67 45.5032 68.6564 50.766 71.2878C56.0886 73.9491 59 77.4407 59 81Z" stroke="#353638" stroke-width="2"/>
<path d="M59 94C59 97.5593 56.0886 101.051 50.766 103.712C45.5032 106.344 38.1627 108 30 108C21.8373 108 14.4968 106.344 9.23401 103.712C3.91138 101.051 1 97.5593 1 94C1 90.4407 3.91138 86.9491 9.23401 84.2878C14.4968 81.6564 21.8373 80 30 80C38.1627 80 45.5032 81.6564 50.766 84.2878C56.0886 86.9491 59 90.4407 59 94Z" stroke="#353638" stroke-width="2"/>
<path d="M59 107C59 110.559 56.0886 114.051 50.766 116.712C45.5032 119.344 38.1627 121 30 121C21.8373 121 14.4968 119.344 9.23401 116.712C3.91138 114.051 1 110.559 1 107C1 103.441 3.91138 99.9491 9.23401 97.2878C14.4968 94.6564 21.8373 93 30 93C38.1627 93 45.5032 94.6564 50.766 97.2878C56.0886 99.9491 59 103.441 59 107Z" stroke="#353638" stroke-width="2"/>
</svg>
