<svg width="2390" height="253" viewBox="0 0 2390 253" fill="none" xmlns="http://www.w3.org/2000/svg">
  <g clip-path="url(#clip0_974_1399)">
    <path
      d="M147 85.1195C150.217 106.503 167.114 123.351 188.516 126.5C167.114 129.649 150.217 146.497 147 167.881C143.783 146.497 126.886 129.649 105.484 126.5C126.886 123.351 143.783 106.503 147 85.1195Z"
      stroke="#8A8C92" />
    <mask id="path-2-outside-1_974_1399" maskUnits="userSpaceOnUse" x="293" y="-1" width="1805" height="255"
      fill="black">
      <rect fill="white" x="293" y="-1" width="1805" height="255" />
      <path fill-rule="evenodd" clip-rule="evenodd"
        d="M320.99 121.44V131.56C320.99 146.464 333.074 158.547 347.98 158.547H391.502C406.408 158.547 418.492 146.464 418.492 131.56V121.44C418.492 106.536 406.408 94.4534 391.502 94.4534H347.98C333.074 94.4534 320.99 106.536 320.99 121.44ZM294 131.56C294 161.369 318.168 185.533 347.98 185.533H391.502C421.315 185.533 445.483 161.369 445.483 131.56V121.44C445.483 91.6315 421.315 67.4668 391.502 67.4668H347.98C318.168 67.4668 294 91.6315 294 121.44V131.56Z" />
      <path
        d="M449.758 148.764C447.623 156.002 445.483 163.343 445.483 170.89V253H472.473V67.4668H445.483V82.1103C445.483 89.657 447.623 96.9978 449.758 104.236C451.367 109.691 452.23 115.465 452.23 121.44V131.56C452.23 137.536 451.367 143.31 449.758 148.764Z" />
      <path d="M436.036 113.007H463.026V139.993H436.036V113.007Z" />
      <path fill-rule="evenodd" clip-rule="evenodd"
        d="M745.411 131.56V121.44C745.411 106.536 733.327 94.4533 718.421 94.4533H674.899C659.993 94.4533 647.909 106.536 647.909 121.44V131.56C647.909 146.464 659.993 158.547 674.899 158.547H718.421C733.327 158.547 745.411 146.464 745.411 131.56ZM772.402 121.44C772.402 91.6313 748.234 67.4666 718.421 67.4666H674.899C645.087 67.4666 620.919 91.6313 620.919 121.44V131.56C620.919 161.369 645.087 185.533 674.899 185.533H718.421C748.234 185.533 772.402 161.369 772.402 131.56V121.44Z" />
      <path
        d="M616.643 104.236C618.778 96.9976 620.919 89.6568 620.919 82.1102V0H593.929V185.533H620.919V170.89C620.919 163.343 618.778 156.002 616.643 148.764C615.035 143.309 614.171 137.535 614.171 131.56V121.44C614.171 115.464 615.035 109.69 616.643 104.236Z" />
      <path d="M630.366 139.993H603.375V113.007H630.366V139.993Z" />
      <path
        d="M533.201 40.8175H506.211V61.0575C506.211 64.7835 503.19 67.8041 499.463 67.8041H479.22V94.7908H506.211V154.836C506.211 171.976 520.107 185.871 537.249 185.871H587.181V158.884H539.948C536.222 158.884 533.201 155.863 533.201 152.137V103.561C533.201 98.7175 537.128 94.7908 541.973 94.7908H587.181V67.8041H547.414C543.835 67.8041 540.402 69.2257 537.871 71.7562L529.2 80.4264L524.26 75.7315L528.516 71.6503C531.085 69.1865 532.576 65.8077 532.665 62.2496L533.201 40.8175Z" />
      <path fill-rule="evenodd" clip-rule="evenodd" d="M1144.49 132.878H825.557V120.122H1144.49V132.878Z" />
      <path
        d="M1231.71 69.8251V116.366H1235.25L1357.3 67.4666V80.5168L1249.24 123.598V126.114L1367.75 183.032H1336.22L1235.07 134.447H1231.71V183.032H1214.88V69.8251H1231.71Z" />
      <path
        d="M1526.35 84.4476C1509.94 73.127 1488.8 67.4666 1462.94 67.4666C1437.07 67.4666 1415.88 73.127 1399.34 84.4476C1382.93 95.6635 1374.72 109.657 1374.72 126.428C1374.72 143.724 1382.87 157.875 1399.17 168.881C1415.58 179.887 1436.84 185.39 1462.94 185.39C1489.03 185.39 1510.23 179.887 1526.53 168.881C1542.94 157.875 1551.15 143.724 1551.15 126.428C1551.15 109.657 1542.88 95.6635 1526.35 84.4476ZM1411.57 93.7243C1424.91 84.8145 1442.03 80.3596 1462.94 80.3596C1483.84 80.3596 1500.96 84.8145 1514.31 93.7243C1527.65 102.634 1534.32 113.535 1534.32 126.428C1534.32 139.217 1527.59 150.118 1514.13 159.133C1500.78 168.042 1483.72 172.497 1462.94 172.497C1442.15 172.497 1425.03 168.042 1411.57 159.133C1398.22 150.118 1391.55 139.217 1391.55 126.428C1391.55 113.535 1398.22 102.634 1411.57 93.7243Z" />
      <path
        d="M1662.51 69.8251C1671.84 69.8251 1680.11 70.5588 1687.31 72.0263C1694.63 73.389 1700.36 75.171 1704.5 77.3722C1708.75 79.5735 1712.23 82.1416 1714.95 85.0766C1717.66 88.0116 1719.49 90.8941 1720.44 93.7243C1721.38 96.4496 1721.85 99.2798 1721.85 102.215C1721.85 105.15 1721.38 108.032 1720.44 110.863C1719.49 113.588 1717.66 116.418 1714.95 119.353C1712.23 122.288 1708.75 124.856 1704.5 127.057C1700.36 129.259 1694.63 131.093 1687.31 132.561C1680.11 133.923 1671.84 134.605 1662.51 134.605H1657.2V136.649L1736.03 183.032H1708.92L1627.09 134.605H1599.81V183.032H1582.98V69.8251H1662.51ZM1662.51 122.026C1677.87 122.026 1688.73 120.087 1695.11 116.208C1701.48 112.33 1704.67 107.666 1704.67 102.215C1704.67 96.7641 1701.48 92.0996 1695.11 88.2212C1688.73 84.3428 1677.87 82.4036 1662.51 82.4036H1599.81V122.026H1662.51Z" />
      <path
        d="M1892.73 69.8251V82.4036H1775.82V116.837H1876.78V129.416H1775.82V170.453H1892.73V183.032H1758.99V69.8251H1892.73Z" />
      <path
        d="M2015.76 69.8251L2096 183.032H2076.16L2052.96 150.17H1954.11L1930.56 183.032H1912.31L1993.62 69.8251H2015.76ZM2005.31 83.1898H2002.3L1963.15 137.592H2043.92L2005.31 83.1898Z" />
    </mask>
    <path fill-rule="evenodd" clip-rule="evenodd"
      d="M320.99 121.44V131.56C320.99 146.464 333.074 158.547 347.98 158.547H391.502C406.408 158.547 418.492 146.464 418.492 131.56V121.44C418.492 106.536 406.408 94.4534 391.502 94.4534H347.98C333.074 94.4534 320.99 106.536 320.99 121.44ZM294 131.56C294 161.369 318.168 185.533 347.98 185.533H391.502C421.315 185.533 445.483 161.369 445.483 131.56V121.44C445.483 91.6315 421.315 67.4668 391.502 67.4668H347.98C318.168 67.4668 294 91.6315 294 121.44V131.56Z"
      stroke="#8A8C92" stroke-width="2" mask="url(#path-2-outside-1_974_1399)" />
    <path
      d="M449.758 148.764C447.623 156.002 445.483 163.343 445.483 170.89V253H472.473V67.4668H445.483V82.1103C445.483 89.657 447.623 96.9978 449.758 104.236C451.367 109.691 452.23 115.465 452.23 121.44V131.56C452.23 137.536 451.367 143.31 449.758 148.764Z"
      stroke="#8A8C92" stroke-width="2" mask="url(#path-2-outside-1_974_1399)" />
    <path d="M436.036 113.007H463.026V139.993H436.036V113.007Z" stroke="#8A8C92" stroke-width="2"
      mask="url(#path-2-outside-1_974_1399)" />
    <path fill-rule="evenodd" clip-rule="evenodd"
      d="M745.411 131.56V121.44C745.411 106.536 733.327 94.4533 718.421 94.4533H674.899C659.993 94.4533 647.909 106.536 647.909 121.44V131.56C647.909 146.464 659.993 158.547 674.899 158.547H718.421C733.327 158.547 745.411 146.464 745.411 131.56ZM772.402 121.44C772.402 91.6313 748.234 67.4666 718.421 67.4666H674.899C645.087 67.4666 620.919 91.6313 620.919 121.44V131.56C620.919 161.369 645.087 185.533 674.899 185.533H718.421C748.234 185.533 772.402 161.369 772.402 131.56V121.44Z"
      stroke="#8A8C92" stroke-width="2" mask="url(#path-2-outside-1_974_1399)" />
    <path
      d="M616.643 104.236C618.778 96.9976 620.919 89.6568 620.919 82.1102V0H593.929V185.533H620.919V170.89C620.919 163.343 618.778 156.002 616.643 148.764C615.035 143.309 614.171 137.535 614.171 131.56V121.44C614.171 115.464 615.035 109.69 616.643 104.236Z"
      stroke="#8A8C92" stroke-width="2" mask="url(#path-2-outside-1_974_1399)" />
    <path d="M630.366 139.993H603.375V113.007H630.366V139.993Z" stroke="#8A8C92" stroke-width="2"
      mask="url(#path-2-outside-1_974_1399)" />
    <path
      d="M533.201 40.8175H506.211V61.0575C506.211 64.7835 503.19 67.8041 499.463 67.8041H479.22V94.7908H506.211V154.836C506.211 171.976 520.107 185.871 537.249 185.871H587.181V158.884H539.948C536.222 158.884 533.201 155.863 533.201 152.137V103.561C533.201 98.7175 537.128 94.7908 541.973 94.7908H587.181V67.8041H547.414C543.835 67.8041 540.402 69.2257 537.871 71.7562L529.2 80.4264L524.26 75.7315L528.516 71.6503C531.085 69.1865 532.576 65.8077 532.665 62.2496L533.201 40.8175Z"
      stroke="#8A8C92" stroke-width="2" mask="url(#path-2-outside-1_974_1399)" />
    <path fill-rule="evenodd" clip-rule="evenodd" d="M1144.49 132.878H825.557V120.122H1144.49V132.878Z" stroke="#8A8C92"
      stroke-width="2" mask="url(#path-2-outside-1_974_1399)" />
    <path
      d="M1231.71 69.8251V116.366H1235.25L1357.3 67.4666V80.5168L1249.24 123.598V126.114L1367.75 183.032H1336.22L1235.07 134.447H1231.71V183.032H1214.88V69.8251H1231.71Z"
      stroke="#8A8C92" stroke-width="2" mask="url(#path-2-outside-1_974_1399)" />
    <path
      d="M1526.35 84.4476C1509.94 73.127 1488.8 67.4666 1462.94 67.4666C1437.07 67.4666 1415.88 73.127 1399.34 84.4476C1382.93 95.6635 1374.72 109.657 1374.72 126.428C1374.72 143.724 1382.87 157.875 1399.17 168.881C1415.58 179.887 1436.84 185.39 1462.94 185.39C1489.03 185.39 1510.23 179.887 1526.53 168.881C1542.94 157.875 1551.15 143.724 1551.15 126.428C1551.15 109.657 1542.88 95.6635 1526.35 84.4476ZM1411.57 93.7243C1424.91 84.8145 1442.03 80.3596 1462.94 80.3596C1483.84 80.3596 1500.96 84.8145 1514.31 93.7243C1527.65 102.634 1534.32 113.535 1534.32 126.428C1534.32 139.217 1527.59 150.118 1514.13 159.133C1500.78 168.042 1483.72 172.497 1462.94 172.497C1442.15 172.497 1425.03 168.042 1411.57 159.133C1398.22 150.118 1391.55 139.217 1391.55 126.428C1391.55 113.535 1398.22 102.634 1411.57 93.7243Z"
      stroke="#8A8C92" stroke-width="2" mask="url(#path-2-outside-1_974_1399)" />
    <path
      d="M1662.51 69.8251C1671.84 69.8251 1680.11 70.5588 1687.31 72.0263C1694.63 73.389 1700.36 75.171 1704.5 77.3722C1708.75 79.5735 1712.23 82.1416 1714.95 85.0766C1717.66 88.0116 1719.49 90.8941 1720.44 93.7243C1721.38 96.4496 1721.85 99.2798 1721.85 102.215C1721.85 105.15 1721.38 108.032 1720.44 110.863C1719.49 113.588 1717.66 116.418 1714.95 119.353C1712.23 122.288 1708.75 124.856 1704.5 127.057C1700.36 129.259 1694.63 131.093 1687.31 132.561C1680.11 133.923 1671.84 134.605 1662.51 134.605H1657.2V136.649L1736.03 183.032H1708.92L1627.09 134.605H1599.81V183.032H1582.98V69.8251H1662.51ZM1662.51 122.026C1677.87 122.026 1688.73 120.087 1695.11 116.208C1701.48 112.33 1704.67 107.666 1704.67 102.215C1704.67 96.7641 1701.48 92.0996 1695.11 88.2212C1688.73 84.3428 1677.87 82.4036 1662.51 82.4036H1599.81V122.026H1662.51Z"
      stroke="#8A8C92" stroke-width="2" mask="url(#path-2-outside-1_974_1399)" />
    <path
      d="M1892.73 69.8251V82.4036H1775.82V116.837H1876.78V129.416H1775.82V170.453H1892.73V183.032H1758.99V69.8251H1892.73Z"
      stroke="#8A8C92" stroke-width="2" mask="url(#path-2-outside-1_974_1399)" />
    <path
      d="M2015.76 69.8251L2096 183.032H2076.16L2052.96 150.17H1954.11L1930.56 183.032H1912.31L1993.62 69.8251H2015.76ZM2005.31 83.1898H2002.3L1963.15 137.592H2043.92L2005.31 83.1898Z"
      stroke="#8A8C92" stroke-width="2" mask="url(#path-2-outside-1_974_1399)" />
    <path
      d="M2243 85.1195C2246.22 106.503 2263.11 123.351 2284.52 126.5C2263.11 129.649 2246.22 146.497 2243 167.881C2239.78 146.497 2222.89 129.649 2201.48 126.5C2222.89 123.351 2239.78 106.503 2243 85.1195Z"
      stroke="#8A8C92" />
  </g>
  <defs>
    <clipPath id="clip0_974_1399">
      <rect width="2390" height="253" fill="white" />
    </clipPath>
  </defs>
  <style>
    path {
      animation: draw 20s ease-in-out infinite;
    }

    @keyframes draw {
      0% {
        stroke-dashoffset: 300;
        stroke-dasharray: 100;
      }
      50% {
        stroke-dashoffset: 0;
        stroke-dasharray: 800;
      }
      100% {
        stroke-dashoffset: 300;
        stroke-dasharray: 100;
      }
    }
  </style>
</svg>