<svg width="350" height="50" viewBox="0 0 350 50" fill="none" xmlns="http://www.w3.org/2000/svg">
<path fill-rule="evenodd" clip-rule="evenodd" d="M5.24227 23.9712V25.9247C5.24227 28.8017 7.58932 31.134 10.4845 31.134H18.9377C21.8329 31.134 24.18 28.8017 24.18 25.9247V23.9712C24.18 21.0942 21.8329 18.7619 18.9377 18.7619H10.4845C7.58932 18.7619 5.24227 21.0942 5.24227 23.9712ZM0 25.9247C0 31.6787 4.69409 36.3433 10.4845 36.3433H18.9377C24.7282 36.3433 29.4223 31.6787 29.4223 25.9247V23.9712C29.4223 18.2171 24.7282 13.5526 18.9377 13.5526H10.4845C4.69409 13.5526 0 18.2171 0 23.9712V25.9247Z" fill="#F1F4F9"/>
<path d="M30.2527 29.2456C29.8381 30.6428 29.4223 32.0598 29.4223 33.5166V49.3665H34.6645V13.5526H29.4223V16.3793C29.4223 17.836 29.8381 19.253 30.2527 20.6503C30.5652 21.7032 30.7328 22.8177 30.7328 23.9712V25.9247C30.7328 27.0781 30.5652 28.1927 30.2527 29.2456Z" fill="#F1F4F9"/>
<path d="M27.5875 22.3433H32.8297V27.5526H27.5875V22.3433Z" fill="#F1F4F9"/>
<path fill-rule="evenodd" clip-rule="evenodd" d="M87.677 25.9246V23.9711C87.677 21.0941 85.33 18.7618 82.4347 18.7618H73.9816C71.0864 18.7618 68.7393 21.0941 68.7393 23.9711V25.9246C68.7393 28.8016 71.0864 31.1339 73.9816 31.1339H82.4347C85.33 31.1339 87.677 28.8016 87.677 25.9246ZM92.9193 23.9711C92.9193 18.2171 88.2252 13.5525 82.4347 13.5525H73.9816C68.1911 13.5525 63.497 18.2171 63.497 23.9711V25.9246C63.497 31.6787 68.1911 36.3432 73.9816 36.3432H82.4347C88.2252 36.3432 92.9193 31.6787 92.9193 25.9246V23.9711Z" fill="#F1F4F9"/>
<path d="M62.6666 20.6502C63.0812 19.253 63.497 17.836 63.497 16.3792V0.529297H58.2548V36.3432H63.497V33.5165C63.497 32.0598 63.0812 30.6428 62.6666 29.2455C62.3541 28.1926 62.1865 27.0781 62.1865 25.9246V23.9711C62.1865 22.8177 62.3541 21.7031 62.6666 20.6502Z" fill="#F1F4F9"/>
<path d="M65.3318 27.5525H60.0896V22.3432H65.3318V27.5525Z" fill="#F1F4F9"/>
<path d="M46.4596 8.40839H41.2174V12.3154C41.2174 13.0346 40.6306 13.6177 39.9068 13.6177H35.9751V18.827H41.2174V30.4177C41.2174 33.7263 43.9165 36.4084 47.246 36.4084H56.9442V31.1991H47.7702C47.0464 31.1991 46.4596 30.616 46.4596 29.8968V20.52C46.4596 19.585 47.2224 18.827 48.1634 18.827H56.9442V13.6177H49.2202C48.5251 13.6177 47.8584 13.8921 47.3668 14.3806L45.6826 16.0542L44.7231 15.1479L45.5497 14.3601C46.0486 13.8845 46.3383 13.2323 46.3556 12.5455L46.4596 8.40839Z" fill="#F1F4F9"/>
<path fill-rule="evenodd" clip-rule="evenodd" d="M165.19 26.1791H103.244V23.7167H165.19V26.1791Z" fill="#F1F4F9"/>
<path d="M182.13 14.0078V22.9916H182.818L206.522 13.5525V16.0717L185.536 24.3878V24.8734L208.552 35.8604H202.428L182.783 26.482H182.13V35.8604H178.861V14.0078H182.13Z" fill="#F1F4F9"/>
<path d="M239.358 16.8304C236.17 14.6452 232.064 13.5525 227.041 13.5525C222.018 13.5525 217.901 14.6452 214.69 16.8304C211.501 18.9955 209.907 21.6967 209.907 24.9341C209.907 28.2727 211.49 31.0043 214.655 33.1288C217.843 35.2534 221.972 36.3156 227.041 36.3156C232.11 36.3156 236.227 35.2534 239.392 33.1288C242.58 31.0043 244.174 28.2727 244.174 24.9341C244.174 21.6967 242.569 18.9955 239.358 16.8304ZM217.063 18.6211C219.655 16.9012 222.981 16.0413 227.041 16.0413C231.101 16.0413 234.426 16.9012 237.018 18.6211C239.61 20.341 240.906 22.4453 240.906 24.9341C240.906 27.4026 239.599 29.5069 236.984 31.2471C234.392 32.9669 231.078 33.8269 227.041 33.8269C223.004 33.8269 219.678 32.9669 217.063 31.2471C214.472 29.5069 213.176 27.4026 213.176 24.9341C213.176 22.4453 214.472 20.341 217.063 18.6211Z" fill="#F1F4F9"/>
<path d="M265.805 14.0078C267.617 14.0078 269.222 14.1494 270.621 14.4327C272.043 14.6958 273.156 15.0397 273.959 15.4646C274.784 15.8896 275.461 16.3853 275.988 16.9518C276.516 17.5184 276.872 18.0748 277.055 18.6211C277.239 19.1472 277.33 19.6935 277.33 20.2601C277.33 20.8266 277.239 21.3831 277.055 21.9294C276.872 22.4554 276.516 23.0018 275.988 23.5683C275.461 24.1349 274.784 24.6306 273.959 25.0555C273.156 25.4804 272.043 25.8345 270.621 26.1178C269.222 26.3808 267.617 26.5123 265.805 26.5123H264.773V26.9069L280.083 35.8604H274.819L258.924 26.5123H253.625V35.8604H250.357V14.0078H265.805ZM265.805 24.0843C268.786 24.0843 270.897 23.7099 272.135 22.9613C273.374 22.2126 273.993 21.3122 273.993 20.2601C273.993 19.2079 273.374 18.3075 272.135 17.5589C270.897 16.8102 268.786 16.4359 265.805 16.4359H253.625V24.0843H265.805Z" fill="#F1F4F9"/>
<path d="M310.518 14.0078V16.4359H287.811V23.0827H307.422V25.5108H287.811V33.4323H310.518V35.8604H284.543V14.0078H310.518Z" fill="#F1F4F9"/>
<path d="M334.415 14.0078L350 35.8604H346.147L341.64 29.5171H322.442L317.866 35.8604H314.322L330.114 14.0078H334.415ZM332.385 16.5876H331.8L324.196 27.089H339.885L332.385 16.5876Z" fill="#F1F4F9"/>
</svg>
