<svg width="480" height="459" viewBox="0 0 480 459" fill="none" xmlns="http://www.w3.org/2000/svg">
<rect width="479.25" height="457" transform="translate(0 1)" fill="#F1F4F9"/>
<path d="M240.104 55.5491C229.429 49.1992 217.984 45.7544 206.077 45.7544C147.847 45.7544 100.643 128.152 100.643 229.795C100.643 331.438 147.847 413.836 206.077 413.836C217.984 413.836 229.429 410.391 240.104 404.041M240.104 55.5491C198.57 80.2546 168.696 148.935 168.696 229.795C168.696 310.655 198.57 379.336 240.104 404.041M240.104 55.5491C250.779 49.1992 262.225 45.7544 274.131 45.7544C332.361 45.7544 379.566 128.152 379.566 229.795C379.566 331.438 332.361 413.836 274.131 413.836C262.225 413.836 250.779 410.391 240.104 404.041M0 228.882H100.643M478.911 458L357.553 342.358M420.302 1L421.284 21.4129C422.192 40.275 438.034 55.3705 457.828 56.2353L479.25 57.1713L457.828 58.1072C438.034 58.9721 422.192 74.0676 421.284 92.9297L420.302 113.343L419.32 92.9297C418.412 74.0676 402.571 58.9721 382.776 58.1072L361.355 57.1713L382.776 56.2353C402.571 55.3705 418.412 40.275 419.32 21.4129L420.302 1Z" stroke="#8A8C92"/>
</svg>
